<?xml version="1.0" encoding="utf-8"?>
<!-- Generator: Adobe Illustrator 16.0.0, SVG Export Plug-In . SVG Version: 6.00 Build 0)  -->
<!DOCTYPE svg PUBLIC "-//W3C//DTD SVG 1.1//EN" "http://www.w3.org/Graphics/SVG/1.1/DTD/svg11.dtd">
<svg version="1.1" id="Layer_1" xmlns="http://www.w3.org/2000/svg" xmlns:xlink="http://www.w3.org/1999/xlink" x="0px" y="0px"
	 width="143.635px" height="325.957px" viewBox="0 0 143.635 325.957" enable-background="new 0 0 143.635 325.957"
	 xml:space="preserve">
<path fill="#333333" d="M103.989,163.812c-3.73-3.738-9.772-3.731-13.451,0.009c-3.677,3.738-3.668,9.718,0.009,13.405l1.933,1.94
	c4.751,4.78,9.473,9.587,14.12,14.426c4.635,4.834,9.258,9.718,13.55,14.595c1.054,1.213,2.11,2.433,3.058,3.605l0.142,0.172
	l-1.041,1.562c-3.555,5.148-7.708,10.453-11.851,15.648l-4.942,6.098l14.686,12.04l5.083-6.274
	c4.309-5.412,8.545-10.782,12.7-16.798l0.782-1.152l0.993-1.532c0.867-1.436,1.76-2.89,2.438-4.393
	c0.4-0.741,0.613-1.506,0.894-2.267c0.192-0.764,0.316-1.53,0.397-2.298l0.1-1.16l0.047-0.594c0.01-0.197-0.073-0.386-0.106-0.58
	c-0.188-0.781-0.326-1.506-0.539-2.257l-0.386-1.108c-0.129-0.37-0.231-0.745-0.473-1.094c-0.425-0.705-0.807-1.426-1.267-2.121
	l-1.489-2.04c-0.247-0.342-0.499-0.674-0.76-1l-0.667-0.822c-1.186-1.466-2.351-2.808-3.522-4.154
	c-4.67-5.308-9.38-10.275-14.132-15.233c-4.749-4.943-9.534-9.814-14.347-14.655L103.989,163.812z"/>
<polygon fill="#FFFFFF" points="105.515,235.272 108.736,231.315 123.509,243.247 120.2,247.312 "/>
<path fill="#333333" d="M53.408,177.211c3.691-3.675,3.721-9.656,0.054-13.406c-3.666-3.75-9.709-3.779-13.451-0.054l-1.963,1.96
	c-4.801,4.795-9.574,9.622-14.315,14.518c-4.743,4.904-9.446,9.829-14.111,15.061c-1.168,1.313-2.334,2.652-3.511,4.067
	l-1.125,1.376c-0.512,0.642-1.001,1.338-1.505,2.002l-0.747,1.011l-0.635,1.053c-0.418,0.702-0.882,1.396-1.081,2.142l-0.396,1.102
	l-0.267,1.114c-0.146,0.742-0.464,1.517-0.317,2.307c0.105,1.539,0.261,3.072,0.889,4.588c0.607,1.509,1.364,2.999,2.223,4.447
	c0.207,0.368,0.413,0.733,0.629,1.081l0.521,0.836l0.754,1.182c4.005,6.111,8.095,11.529,12.259,17.012l4.942,6.387l14.951-11.709
	l-4.805-6.209c-3.999-5.252-8.022-10.624-11.406-15.802l-0.761-1.194l0.485-0.59c0.98-1.176,2.026-2.383,3.098-3.59
	c4.312-4.835,8.923-9.671,13.557-14.461c4.643-4.794,9.354-9.557,14.094-14.296L53.408,177.211z"/>
<polygon fill="#FFFFFF" points="22.255,246.994 19.038,242.854 34.074,231.256 37.206,235.285 "/>
<path fill="#333333" d="M97.524,160.762c-6.259-1.395-15.915-3.084-25.964-3.086c-10.06,0-19.749,1.694-26.025,3.092
	c-3.963,0.88-7.123,5.101-7.123,9.159v66.188h66.233v-66.188C104.646,165.868,101.486,161.646,97.524,160.762"/>
<path fill="#FFFFFF" d="M90.779,159.432c-5.566-0.954-12.3-1.754-19.219-1.756c-6.937,0-13.695,0.804-19.282,1.764l18.545,23.653
	h1.409L90.779,159.432z"/>
<path fill="#FFDA96" d="M85.249,151.39l1.024,7.352c0,0-6.308,7.628-14.744,7.628c-8.433,0-14.746-7.623-14.746-7.623l1.025-7.356
	H85.249z"/>
<polygon fill="#333333" points="54.625,170.585 47.865,178.724 42.325,170.585 49.09,162.448 "/>
<polygon fill="#333333" points="100.731,170.585 95.194,178.724 88.43,170.585 93.968,162.448 "/>
<polygon fill="#333333" points="70.401,189.254 63.642,197.391 56.877,189.254 62.417,181.119 "/>
<polygon fill="#333333" points="54.625,189.254 47.865,197.391 42.325,189.254 47.865,181.119 "/>
<polygon fill="#333333" points="86.18,189.254 79.417,197.391 72.652,189.254 80.643,181.119 "/>
<polygon fill="#333333" points="100.731,189.254 95.194,197.391 88.43,189.254 95.194,181.119 "/>
<polygon fill="#333333" points="70.401,207.926 63.642,216.062 56.877,207.926 63.642,199.788 "/>
<polygon fill="#333333" points="54.625,207.926 47.865,216.062 42.325,207.926 47.865,199.788 "/>
<polygon fill="#333333" points="86.18,207.926 79.417,216.062 72.652,207.926 79.417,199.788 "/>
<polygon fill="#333333" points="100.731,207.926 95.194,216.062 88.43,207.926 95.194,199.788 "/>
<polygon fill="#333333" points="70.401,226.597 63.642,234.733 56.877,226.597 63.642,218.457 "/>
<polygon fill="#333333" points="54.625,226.597 47.865,234.733 42.325,226.597 47.865,218.457 "/>
<polygon fill="#333333" points="86.18,226.597 79.417,234.733 72.652,226.597 79.417,218.457 "/>
<polygon fill="#333333" points="100.731,226.597 95.194,234.733 88.43,226.597 95.194,218.457 "/>
<path fill="#016DAB" d="M110.116,316.531l-5.471-80.416H38.412l-4.583,80.416l26.927,4.395l4.09-65.192
	c0.169-2.702,2.5-4.892,5.206-4.892h3.757c2.706,0,5.04,2.189,5.213,4.891l4.168,65.193L110.116,316.531z"/>
<path fill="#FFDA96" d="M119.28,248.431l0.92-1.119l-14.686-12.039l-0.896,1.092c-3.286,3.996-2.741,9.93,1.253,13.327
	C109.866,253.091,115.906,252.535,119.28,248.431"/>
<path fill="#FFDA96" d="M38.078,236.396l-0.871-1.11l-14.951,11.709l0.893,1.138c3.282,4.178,9.309,4.867,13.38,1.56
	C40.597,246.383,41.272,240.463,38.078,236.396"/>
<polygon fill="#333333" points="60.756,325.957 31.295,325.957 31.295,321.038 33.829,316.531 60.756,320.926 "/>
<polygon fill="#333333" points="83.19,325.957 112.651,325.957 112.651,321.038 110.117,316.531 83.19,320.926 "/>
<path fill="#EBC47F" d="M85.234,155.037c0,0-4.376,2.129-13.787,2.129s-13.89-2.146-13.89-2.146s7.447-1.564,13.89-1.564
	S85.234,155.037,85.234,155.037"/>
<path fill="#FFDA96" d="M34.466,109.829c0,6.096-3.891,11.037-8.689,11.037c-4.8,0-8.691-4.941-8.691-11.037
	c0-6.095,3.891-11.036,8.691-11.036C30.575,98.793,34.466,103.734,34.466,109.829"/>
<path fill="#FFDA96" d="M125.809,109.829c0,6.096-3.891,11.037-8.69,11.037c-4.798,0-8.689-4.941-8.689-11.037
	c0-6.095,3.892-11.036,8.689-11.036C121.918,98.793,125.809,103.734,125.809,109.829"/>
<path fill="#FFDA96" d="M116.532,78.057c0-20.976-17.003-37.98-37.979-37.98H63.167c-20.973,0-37.979,17.004-37.979,37.98v40.113
	c0,20.974,17.006,37.98,37.979,37.98h15.387c20.976,0,37.979-17.006,37.979-37.98V78.057z"/>
<path fill="#441C14" d="M53.021,121.409c-1.016,0-1.839-0.822-1.839-1.838v-2.052c0-1.597-1.298-2.897-2.895-2.897
	c-1.595,0-2.892,1.3-2.892,2.897v2.052c0,1.016-0.823,1.838-1.838,1.838c-1.015,0-1.838-0.822-1.838-1.838v-2.052
	c0-3.623,2.947-6.571,6.568-6.571c3.624,0,6.57,2.948,6.57,6.571v2.052C54.856,120.587,54.036,121.409,53.021,121.409"/>
<path fill="#441C14" d="M99.501,121.409c-1.016,0-1.839-0.822-1.839-1.838v-2.052c0-1.597-1.298-2.897-2.895-2.897
	s-2.896,1.3-2.896,2.897v2.052c0,1.016-0.822,1.838-1.838,1.838c-1.015,0-1.837-0.822-1.837-1.838v-2.052
	c0-3.623,2.947-6.571,6.57-6.571c3.624,0,6.571,2.948,6.571,6.571v2.052C101.339,120.587,100.516,121.409,99.501,121.409"/>
<g opacity="0.5">
	<g>
		<defs>
			<rect id="SVGID_1_" x="28.172" y="102.646" width="87.346" height="32.054"/>
		</defs>
		<clipPath id="SVGID_2_">
			<use xlink:href="#SVGID_1_"  overflow="visible"/>
		</clipPath>
		<path clip-path="url(#SVGID_2_)" fill="#CDCCCC" d="M29.553,102.646l17.926,0.625l23.138,2.918l12.921-2.293l8.964-0.833
			l20.843-0.417l2.084,7.712c0,0,1.876,21.051-11.464,23.344c-13.339,2.294-22.303-2.292-28.555-19.801
			c-6.255-17.509-7.088-3.96-7.088-3.96s-4.585,27.097-20.843,24.596C31.221,132.035,25.176,124.949,29.553,102.646"/>
	</g>
</g>
<g opacity="0.5">
	<g>
		<defs>
			<rect id="SVGID_3_" x="36.066" y="102.542" width="12.976" height="31.421"/>
		</defs>
		<clipPath id="SVGID_4_">
			<use xlink:href="#SVGID_3_"  overflow="visible"/>
		</clipPath>
		<polygon clip-path="url(#SVGID_4_)" fill="#E6E6E5" points="36.066,103.792 43.415,133.182 49.042,133.963 39.193,102.542 		"/>
	</g>
</g>
<g opacity="0.5">
	<g>
		<defs>
			<rect id="SVGID_5_" x="104.271" y="102.518" width="10.456" height="27.018"/>
		</defs>
		<clipPath id="SVGID_6_">
			<use xlink:href="#SVGID_5_"  overflow="visible"/>
		</clipPath>
		<path clip-path="url(#SVGID_6_)" fill="#E6E6E5" d="M111.724,128.36c0.885-1.445,1.864-2.817,3.004-4.085l-6.819-21.758h-3.637
			l6.755,27.019C111.092,129.088,111.329,128.666,111.724,128.36"/>
	</g>
</g>
<g opacity="0.5">
	<g>
		<defs>
			<rect id="SVGID_7_" x="82.131" y="103.583" width="12.976" height="31.422"/>
		</defs>
		<clipPath id="SVGID_8_">
			<use xlink:href="#SVGID_7_"  overflow="visible"/>
		</clipPath>
		<polygon clip-path="url(#SVGID_8_)" fill="#E6E6E5" points="82.131,104.834 89.479,134.223 95.106,135.005 85.258,103.583 		"/>
	</g>
</g>
<g opacity="0.5">
	<g>
		<defs>
			<rect id="SVGID_9_" x="31.047" y="104.991" width="8.469" height="28.34"/>
		</defs>
		<clipPath id="SVGID_10_">
			<use xlink:href="#SVGID_9_"  overflow="visible"/>
		</clipPath>
		<path clip-path="url(#SVGID_10_)" fill="#E6E6E5" d="M38.043,132.298c0.488,0.351,0.978,0.696,1.473,1.033l-7.222-28.34
			l-1.247,1.398l5.776,25.625C37.196,131.927,37.616,131.991,38.043,132.298"/>
	</g>
</g>
<g opacity="0.5">
	<g>
		<defs>
			<rect id="SVGID_11_" x="53.094" y="103.664" width="8.106" height="25.741"/>
		</defs>
		<clipPath id="SVGID_12_">
			<use xlink:href="#SVGID_11_"  overflow="visible"/>
		</clipPath>
		<path clip-path="url(#SVGID_12_)" fill="#E6E6E5" d="M59.929,128.859c0.259,0.186,0.52,0.364,0.779,0.546
			c0.146-0.127,0.313-0.228,0.493-0.305l-6.482-25.436h-1.624l5.615,24.911C59.083,128.487,59.502,128.552,59.929,128.859"/>
	</g>
</g>
<g opacity="0.5">
	<g>
		<defs>
			<rect id="SVGID_13_" x="78.523" y="106.374" width="8.106" height="25.741"/>
		</defs>
		<clipPath id="SVGID_14_">
			<use xlink:href="#SVGID_13_"  overflow="visible"/>
		</clipPath>
		<path clip-path="url(#SVGID_14_)" fill="#E6E6E5" d="M85.357,131.569c0.259,0.186,0.521,0.365,0.779,0.546
			c0.146-0.128,0.313-0.229,0.491-0.306l-6.48-25.436h-1.624l5.615,24.911C84.512,131.197,84.931,131.262,85.357,131.569"/>
	</g>
</g>
<g opacity="0.5">
	<g>
		<defs>
			<rect id="SVGID_15_" x="56.165" y="103.81" width="8.986" height="23.125"/>
		</defs>
		<clipPath id="SVGID_16_">
			<use xlink:href="#SVGID_15_"  overflow="visible"/>
		</clipPath>
		<path clip-path="url(#SVGID_16_)" fill="#E6E6E5" d="M65.041,120.835c0.034-0.044,0.073-0.077,0.109-0.117l-4.985-15.903
			c-0.875-0.229-1.747-0.586-2.626-0.901c-0.081-0.029-0.148-0.069-0.221-0.105c-0.386,0.063-0.771,0.102-1.154,0.127l5.75,22.999
			C62.66,124.738,63.677,122.614,65.041,120.835"/>
	</g>
</g>
<path fill="#441C14" d="M71.526,147.642c-13.454,0-18.433-5.272-18.639-5.497c-0.683-0.749-0.631-1.91,0.119-2.596
	c0.743-0.682,1.895-0.633,2.581,0.102c0.101,0.104,4.366,4.316,15.939,4.316c11.65,0,15.9-4.276,15.943-4.318
	c0.698-0.727,1.856-0.764,2.59-0.075c0.733,0.689,0.783,1.831,0.105,2.572C89.958,142.371,84.972,147.642,71.526,147.642"/>
<path fill="#603A17" d="M132.665,65.866c0.776-3.732-1.419-5.952-3.156-9.844c-1.738-3.875-2.195-9.159-2.516-11.238
	c-0.321-2.076-2.036-3.589-3.454-3.589s-3.773,1.795-6.29-2.218c-2.517-4.036-7.87-4.036-7.87-4.036
	c-1.257-8.875-8.806-7.908-8.806-7.908c0.64-4.983-1.099-8.029-1.099-8.029c-2.836,2.621-8.646,1.513-8.646,1.513
	C92.864,17.329,91.285,14,91.285,14c-1.713,4.299-9.583,6.657-9.583,6.657c0.8-1.109,0.318-4.013,0.318-4.013
	c-1.098,3.187-6.289,3.873-6.289,3.873c0.78-4.579,5.033-6.94,5.033-6.94c-3.453,0.99-11.005,7.08-11.005,7.08
	c2.815-5.002,11.781-9.701,11.781-9.701c-7.548,1.249-13.678,7.199-13.678,7.199c-0.319-4.295,6.932-9.278,6.932-9.278
	c-3.615,0.545-7.55,3.873-7.55,3.873c2.813-4.014,7.55-6.657,7.55-6.657C68.96,8.17,56.54,16.078,56.54,16.078
	c4.713-6.092,9.904-9.158,9.904-9.158c-3.681,0.786-7.138,3.086-9.241,4.741c2.654-3.549-0.023-8.472-0.023-8.472
	c0.938,3.186-2.835,6.233-2.835,6.233s-0.803,4.013,0-0.545C55.121,4.298,52.605,0,52.605,0C54.504,9.986,44.6,19.689,44.6,19.689
	c2.036-3.611,0.937-8.331,0.937-8.331c-0.479,1.956-2.356,7.504-5.514,10.954c-3.133,3.469-3.451,12.344-3.451,12.344
	c-2.838-6.372,1.097-11.638,1.097-11.638c-7.71,3.873-5.033,11.923-5.033,11.923c-2.837-4.578-0.159-10.813-0.159-10.813
	c-4.712,2.218-5.192,12.346-5.192,12.346c-4.553-0.14-8.944,5.407-11.004,8.452c-2.035,3.046-4.871,3.754-4.871,3.754
	c3.293,0.685,2.356,4.296,2.356,4.296c-7.229,2.764-6.292,8.45-6.292,8.45c0-2.902,3.455-4.436,3.455-4.436
	c-2.333,2.079-1.968,5.285-1.099,7.827c-0.503-3.027,1.58-4.619,1.58-4.619c0.159,1.228-0.458,3.349-1.306,5.365
	c0.024,0.04,0.024,0.082,0.047,0.121c-0.047,0-0.068,0-0.115,0.019c-0.96,2.16-2.218,4.179-3.179,4.744
	c-1.898,1.108-1.417,1.672-1.417,2.5c0,0.827-1.099,2.219-1.099,2.219c4.072,0.604,5.283-0.101,5.65-0.543
	c-1.03,2.66,3.613,10.044,3.613,15.249c0,5.407,2.837,3.59,4.416,7.343c1.556,3.753,1.098,2.925,5.032,9.845
	c3.933,6.94,3.293,9.703,3.293,9.703c2.037,4.317,1.899-20.234,1.258-23.421c-0.618-3.207,0.162-7.503,2.356-9.44
	c2.196-1.937,2.837-7.082,3.158-10.39c0.319-3.35,2.356-4.317,2.812-8.755c0.481-4.438,3.157-3.731,4.576-5.952
	c1.418-2.217,1.577-2.077,7.067,0.142c5.514,2.219,8.188,0.686,11.804-0.142c3.615-0.846,6.749-3.328,11.804-0.846
	c5.009,2.5,8.004-0.969,10.683-0.969c2.676,0,11.94,5.547,14.936,7.223c2.999,1.653,6.291,2.623,11.324,2.358
	c5.031-0.28,2.675,7.062,4.574,9.28c1.876,2.22,1.259,8.876,1.259,12.771c0,3.872,0.937,7.202,1.716,10.954
	c0.8,3.753,1.417,7.765,1.096,10.531c-0.296,2.783-0.455,6.254,0.162,4.721c0.639-1.513,3.772-4.299,4.712-6.094
	c0.936-1.816,4.575-6.374,5.512-8.875c0.938-2.502,1.737-7.082,1.737-7.082s3.775-5.547,3.936-11.095
	C132.963,76.134,131.864,69.619,132.665,65.866"/>
<path fill="#603A17" d="M9.831,64.816c0.045,0.283,0.115,0.565,0.206,0.887c0.024-0.059,0.047-0.1,0.068-0.14
	C10.015,65.321,9.921,65.079,9.831,64.816"/>
<g opacity="0.1">
	<g>
		<defs>
			<rect id="SVGID_17_" x="19.438" y="48.109" width="19.17" height="23.87"/>
		</defs>
		<clipPath id="SVGID_18_">
			<use xlink:href="#SVGID_17_"  overflow="visible"/>
		</clipPath>
		<path clip-path="url(#SVGID_18_)" fill="#FFFFFF" d="M24.149,48.113c0,0-3.156,0.282-3.477,4.034c0,0,2.379-2.077,4.896-0.421
			c0,0-4.575,0.824-6.131,4.861c0,0,2.196-1.535,5.033-0.142c0,0-3.317,0.685-3.317,5.547c0,0,2.059-2.079,4.415-1.957
			c0,0-2.677,3.209-1.257,5.69c0,0,1.097,3.328-0.802,6.254c0,0,5.032-3.753,5.032-5.55c0,0,4.576-5.263,10.065-6.516
			c0,0-4.231,0.122-7.708,1.656c0,0,0.96-3.731,3.316-4.841c0,0-3.773-0.426-5.512,1.372c0,0-1.418-1.655,0.938-2.361
			c0,0-2.196-0.687-2.972,0.141c0,0-0.162-2.904,2.972-1.654c0,0-0.777-1.676-3.752-1.109c0,0,0.457-2.361,2.196-2.079
			C28.083,51.038,27.604,47.972,24.149,48.113"/>
	</g>
</g>
<g opacity="0.1">
	<g>
		<defs>
			<rect id="SVGID_19_" x="38.813" width="73.13" height="55.336"/>
		</defs>
		<clipPath id="SVGID_20_">
			<use xlink:href="#SVGID_19_"  overflow="visible"/>
		</clipPath>
		<path clip-path="url(#SVGID_20_)" fill="#FFFFFF" d="M91.492,55.336c0,0,13.038-0.424,17.613-8.474c0,0,2.516-5.002,2.837-11.54
			c-1.441-0.382-2.519-0.382-2.519-0.382c-1.257-8.875-8.806-7.907-8.806-7.907c0.616-4.984-1.099-8.03-1.099-8.03
			c-2.834,2.621-8.669,1.513-8.669,1.513C92.911,17.33,91.332,14,91.332,14c-1.716,4.298-9.584,6.656-9.584,6.656
			c0.777-1.109,0.298-4.013,0.298-4.013c-1.099,3.188-6.291,3.873-6.291,3.873c0.801-4.579,5.032-6.94,5.032-6.94
			c-3.455,0.99-11.003,7.08-11.003,7.08c2.836-5.001,11.803-9.7,11.803-9.7c-7.546,1.249-13.68,7.199-13.68,7.199
			c-0.32-4.296,6.909-9.279,6.909-9.279c-3.613,0.545-7.55,3.873-7.55,3.873c2.838-4.014,7.55-6.657,7.55-6.657
			c-5.812,2.077-18.23,9.986-18.23,9.986c4.712-6.093,9.903-9.159,9.903-9.159c-3.704,0.787-7.158,3.086-9.241,4.742
			c2.632-3.55-0.045-8.473-0.045-8.473c0.937,3.186-2.836,6.233-2.836,6.233s-0.776,4.013,0-0.545C55.168,4.297,52.651,0,52.651,0
			c1.876,9.986-8.029,19.689-8.029,19.689c2.035-3.61,0.938-8.331,0.938-8.331c-0.459,1.956-2.357,7.504-5.49,10.955
			c-0.479,0.543-0.914,1.21-1.258,1.936c0.023,2.824,0.205,7.364,0.937,8.755c0,0,0.321-4.72,2.037-6.113
			c0,0-1.716,2.926,0.319,6.113c0,0,2.037-5.003,4.415-6.253c0,0-1.898,4.72-0.64,6.94c0,0,1.877-5.953,5.97-7.345
			c0,0-1.257,1.796-0.616,3.188c0,0,5.65-5.689,9.423-7.484c0,0-9.904,9.161-8.485,13.032c0,0,6.29-10.126,13.518-12.487
			c0,0-1.876,9.301-7.846,13.314c0,0,5.192-2.501,12.102-0.827c0,0-1.259,4.579-6.91,7.082c0,0,5.332,0.26,7.228-1.393
			c0,0,0.781,2.36-3.611,4.861c0,0,8.006,1.373,12.877-4.437c0,0,3.478-2.785,4.576-6.538c0,0,2.972,6.538-0.939,11.52
			c0,0,10.066-0.685,11.164-8.875c0,0,1.259,5.122-2.356,10.268c0,0,5.811,1.25,8.484-2.926
			C100.457,44.644,96.363,52.146,91.492,55.336"/>
	</g>
</g>
<path fill="#1D160C" d="M117.701,100.658c0,0-1.897-0.339-21.425,0.95c-16.367,1.08-22.61,1.23-24.203,1.25
	c-1.593-0.02-7.837-0.17-24.203-1.25c-19.527-1.289-21.425-0.95-21.425-0.95s-0.543,6.713,0,7.729
	c0.542,1.018,0.882,8.747,1.288,11.459c0.407,2.712,1.288,7.797,4.203,10.712c2.916,2.916,7.527,4.813,12.611,5.356
	c6.984,0.339,9.154-0.051,14.289-3.103c5.137-3.05,8.458-12.322,9.002-14.017c0.541-1.695,1.32-4.373,1.863-5.289
	c0.456-0.741,1.288-0.96,1.928-1.009v0.026c0,0,0.177-0.029,0.443-0.036c0.268,0.007,0.442,0.036,0.442,0.036v-0.026
	c0.641,0.049,1.472,0.268,1.929,1.009c0.543,0.916,1.321,3.594,1.865,5.289c0.542,1.695,3.863,10.967,9.001,14.017
	c5.135,3.052,7.305,3.441,14.288,3.103c5.084-0.543,9.695-2.44,12.609-5.356c2.917-2.915,3.799-8,4.205-10.712
	c0.406-2.712,0.746-10.441,1.288-11.459C118.243,107.371,117.701,100.658,117.701,100.658 M65.16,114.49
	c-0.475,2.44-1.425,10.305-6.239,14.442c-2.373,2.101-5.191,4.338-10.494,4.474c-3.812,0.068-11.473-0.881-14.388-4.61
	c-1.356-2.103-3.391-4.43-3.458-10.249c-0.068-5.82-0.075-10.445,1.016-11.584c0,0,1.9-2.373,4.001-2.847
	c2.102-0.474,8.068-0.814,14.034,0.407c5.968,1.22,11.662,3.119,13.155,4.407C64.278,110.218,65.634,112.049,65.16,114.49
	 M113.565,118.547c-0.068,5.819-2.102,8.146-3.459,10.249c-2.914,3.729-10.576,4.678-14.387,4.61
	c-5.304-0.136-8.122-2.373-10.496-4.474c-4.813-4.137-5.762-12.002-6.236-14.442c-0.475-2.441,0.88-4.272,2.373-5.56
	c1.49-1.288,7.186-3.187,13.153-4.407c5.965-1.221,11.933-0.881,14.035-0.407c2.101,0.474,3.999,2.847,3.999,2.847
	C113.64,108.103,113.634,112.728,113.565,118.547"/>
<polygon fill="#333333" points="65.634,188.271 69.679,176.515 66.427,173.261 71.646,166.1 76.865,173.261 73.614,176.515 
	77.659,188.271 71.646,198.22 "/>
<rect id="_x3C_Slice_x3E_" x="-0.411" y="-0.646" fill="none" width="144" height="332"/>
</svg>
